<?xml version="1.0" standalone="no"?>
<!DOCTYPE svg PUBLIC "-//W3C//DTD SVG 1.1//EN" "http://www.w3.org/Graphics/SVG/1.1/DTD/svg11.dtd">
<svg t="1697342491159" class="icon" viewBox="0 0 1024 1024" version="1.1" xmlns="http://www.w3.org/2000/svg" p-id="6529"
	width="512" height="512" xmlns:xlink="http://www.w3.org/1999/xlink">
	<path
		d="M499.399512 0h22.907978c22.999978 2.585997 46.089955 4.548996 68.983933 7.867992 95.888906 13.897986 179.815824 54.122947 253.496752 116.452887 47.942953 40.55696 86.795915 88.894913 116.594886 143.809859 30.87697 56.898944 50.527951 117.944885 57.605944 182.657822 1.605998 14.683986 3.334997 29.353971 5.008995 44.029957v34.362966c-2.171998 18.063982-4.229996 36.142965-6.538994 54.191947-6.270994 49.010952-18.831982 96.437906-41.209959 140.473863-15.787985 31.06497-33.559967 61.32694-52.812949 90.375912-23.900977 36.064965-54.637947 66.567935-88.111914 93.760908-44.864956 36.444964-94.426908 65.160936-149.190854 84.464918-46.514955 16.395984-94.089908 27.362973-143.53686 29.415971-7.543993 0.313-15.053985 1.402999-22.579978 2.134998h-16.035984c-7.543993-0.728999-15.136985-1.134999-22.624978-2.245998-33.037968-4.909995-66.625935-7.650993-98.938903-15.567985-63.813938-15.634985-122.084881-44.126957-174.90483-83.554918-34.649966-25.865975-65.711936-55.391946-92.823909-89.023913-27.094974-33.619967-49.740951-69.928932-67.706934-109.339893-21.813979-47.853953-35.816965-97.753905-42.327959-149.789854-2.259998-18.065982-3.141997-36.302965-4.652995-54.459947v-16.035984c0.649999-4.464996 1.367999-8.925991 1.938998-13.399987 3.895996-30.53097 5.997994-61.41594 11.998988-91.523911 13.195987-66.203935 41.24996-126.493876 79.987922-181.480822 33.097968-46.983954 73.361928-87.133915 120.242883-120.830882 45.268956-32.537968 94.354908-57.178944 147.448856-73.274929 42.285959-12.819987 85.621916-21.364979 130.166873-21.678979C494.327517 1.772998 496.861515 0.622999 499.399512 0zM342.007666 916.921105c40.031961 18.053982 80.728921 27.205973 122.41588 32.095968 37.290964 4.373996 74.412927 3.004997 111.731891-2.426997 39.538961-5.756994 77.422924-16.559984 113.677889-32.547969 47.749953-21.058979 90.402912-50.167951 128.136875-86.427915 6.207994-5.963994 7.812992-11.209989 3.399997-18.670982-3.869996-6.545994-6.757993-13.673987-10.66599-20.19198-4.548996-7.588993-3.742996-14.049986-0.083-22.196979 6.663993-14.831986 12.813987-30.24997 16.312984-46.057955 4.433996-20.04998 1.180999-38.997962-14.198986-55.096946-8.834991-9.243991-16.489984-20.16098-22.394978-31.514969-6.171994-11.871988-9.609991-25.169975-14.564986-38.722962-2.786997 2.290998-5.185995 4.601996-7.903992 6.446993-15.379985 10.44299-30.122971 22.111978-46.437955 30.81897-21.705979 11.580989-42.954958 11.417989-61.31494-8.647991-4.938995-5.400995-12.150988-9.664991-19.140981-12.051988-15.635985-5.339995-24.975976-16.815984-32.985968-30.023971-3.947996-6.512994-7.601993-13.219987-11.091989-19.988981-22.925978-44.462957-13.775987-76.456925 24.117977-106.347896 7.845992-6.189994 10.42999-11.575989 11.773988-20.944979 2.075998-14.461986 5.968994-29.065972 11.815989-42.413959 2.916997-6.654994 11.451989-14.350986 18.200982-15.143985 17.619983-2.072998 30.93797-12.021988 45.912955-19.222981 11.858988-5.699994 24.399976-11.337989 37.216964-13.390987 25.361975-4.058996 44.346957 10.45299 61.822939 26.335974 4.601996 4.182996 7.520993 4.050996 12.758988 1.509999 14.332986-6.954993 28.775972-13.943986 43.786957-19.166982 16.304984-5.672994 33.295967-9.372991 50.028951-13.942986 0-1.071999 0.352-2.339998-0.052-3.285997-17.401983-41.03596-41.484959-77.896924-70.526931-111.545891-1.673998-1.939998-6.491994-2.189998-9.583991-1.668998-5.876994 0.990999-11.478989 3.543997-17.342983 4.675995-15.261985 2.945997-17.621983 6.499994-11.717988 20.79098 4.353996 10.54599 10.14599 20.52598 14.100986 31.201969 2.115998 5.710994 1.701998 12.360988 2.427998 18.587982-6.226994 0.515999-13.749987 3.505997-18.422982 1.057999-11.548989-6.049994-22.529978-13.741987-32.400969-22.312978-19.578981-17.001983-46.542955-15.816985-62.459939 4.556996-7.704992 9.86399-13.416987 21.284979-21.120979 31.150969-10.59299 13.565987-22.221978 26.325974-33.406968 39.431962a6392.343757 6392.343757 0 0 0-3.999996-1.432999c1.762998-24.870976-12.522988-42.417959-28.822971-62.031939 8.062992-1.502999 13.359987-2.913997 18.741981-3.387997 6.827993-0.602999 13.843986 0.256 20.55598-0.849999 4.907995-0.808999 9.455991-3.773996 14.164986-5.776995-2.041998-4.299996-3.198997-9.409991-6.270994-12.767987-17.601983-19.237981-11.191989-24.653976 6.158994-37.792963 1.504999-1.139999 3.448997-1.700998 4.956996-2.836997 10.60599-7.978992 23.476977-14.927985 24.938975-29.623972 2.039998-20.45298 14.765986-28.676972 32.491969-32.708968l29.172971-6.633993 0.661999-3.140997-58.183943-33.256968c7.900992 22.636978 7.113993 31.801969-11.234989 45.554956-12.788988 9.584991-27.940973 17.493983-43.258958 21.931979-34.593966 10.02199-42.109959 3.771996-36.514964-31.62997 2.847997-18.012982 7.388993-35.774965 11.599989-53.547947 2.063998-8.720991 1.235999-13.567987-9.288991-16.000985-49.779951-11.508989-99.717903-16.169984-150.861853-10.944989-25.018976 2.555998-25.358975 1.285999-30.84797 31.896969-0.766999 4.275996-1.942998 8.478992-3.080997 13.361987-6.436994-2.100998-11.530989-3.562997-16.478984-5.415995-16.953983-6.345994-31.629969-2.121998-41.209959 12.440988-11.138989 16.926983-20.00798 35.348965-29.789971 52.990948 14.262986 8.808991 19.471981 24.544976 16.312984 43.142958-3.308997 19.482981-19.230981 13.625987-33.726967 15.318985 6.639994 3.912996 11.163989 6.470994 15.579985 9.202991 11.756989 7.271993 12.551988 10.973989 3.957996 21.461979-4.813995 5.875994-10.74899 10.876989-15.232985 16.968984-4.205996 5.711994-7.899992 4.586996-13.638987 2.490997-12.797988-4.675995-25.846975-9.319991-39.198962-11.673988-18.616982-3.279997-24.847976 1.313999-27.007974 19.59498-1.847998 15.636985-10.40399 24.522976-24.515976 27.626973-11.775989 2.589997-24.073976 3.253997-36.182964 3.783997-25.104975 1.100999-29.002972 4.720995-29.994971 29.582971-0.349 8.758991-0.787999 17.538983-1.764998 26.244974-0.983999 8.771991-3.564997 16.954983-14.565986 17.242983-10.787989 0.283-16.502984-5.700994-19.190981-15.877984-3.099997-11.737989-6.570994-23.419977-10.74699-34.809966-1.448999-3.952996-5.482995-6.958993-10.07799-12.494988-5.566995 16.104984-9.677991 29.074972-14.532986 41.760959-5.756994 15.041985-7.187993 27.714973 1.093999 44.309957 12.592988 25.232975 18.002982 53.959947 27.828973 80.702921 5.668994 15.429985 14.017986 29.872971 20.95998 44.337957 3.744996-1.153999 4.582996-1.214999 5.166995-1.630998a52.487949 52.487949 0 0 0 4.457995-3.554997c11.474989-10.18599 22.802978-12.229988 37.382964-4.256996 10.58399 5.786994 23.736977 10.00199 35.592965 9.656991 22.319978-0.645999 35.929965 8.368992 44.148957 28.223972 1.450999 3.503997 4.846995 8.439992 7.765992 8.751992 26.186974 2.777997 41.709959 20.79898 56.631945 39.162961 25.809975 31.765969 56.264945 56.153945 95.901906 69.100933 13.659987 4.460996 26.700974 12.992987 37.888963 22.250978 11.696989 9.672991 8.264992 26.925974-5.192995 34.065967-9.81699 5.210995-18.608982 11.480989-20.46798 22.914978-2.312998 14.223986-3.735996 28.659972-4.451995 43.058957-1.001999 20.15198-3.398997 21.977979-23.535977 23.713977-10.51699 0.902999-23.165977 2.938997-30.545971 9.391991-20.08298 17.554983-31.12997 41.728959-41.518959 67.129935zM76.213926 464.739546C64.479937 504.240508 78.775923 612.177402 99.899902 666.254349c32.623968 83.516918 89.018913 150.066853 115.895887 167.149837-9.189991-18.662982-17.691983-35.933965-26.196974-53.198948-3.368997-6.841993-7.054993-12.191988-15.366985-15.312985-7.177993-2.694997-13.939986-9.446991-18.327982-16.095984-16.041984-24.317976-23.322977-51.888949-25.742975-80.612922-2.235998-26.543974-7.585993-53.853947-3.527997-79.557922 3.013997-19.090981-3.207997-28.679972-14.625985-39.363961-1.669998-1.562998-3.276997-3.193997-4.891996-4.815996-4.836995-4.860995-5.670994-9.411991-2.092998-16.176984 3.188997-6.033994 5.802994-14.216986 4.391996-20.48798-4.262996-18.938982-16.747984-32.419968-33.199967-43.040958z"
		p-id="6530" fill="#d81e06"></path>
</svg>